<svg width="20" height="20" viewBox="0 0 20 20" fill="none" xmlns="http://www.w3.org/2000/svg">
<path d="M10.0001 12.917C9.22656 12.917 8.4847 12.6097 7.93772 12.0627C7.39073 11.5157 7.08344 10.7739 7.08344 10.0003C7.08344 9.22678 7.39073 8.48491 7.93772 7.93793C8.4847 7.39095 9.22656 7.08366 10.0001 7.08366C10.7737 7.08366 11.5155 7.39095 12.0625 7.93793C12.6095 8.48491 12.9168 9.22678 12.9168 10.0003C12.9168 10.7739 12.6095 11.5157 12.0625 12.0627C11.5155 12.6097 10.7737 12.917 10.0001 12.917ZM16.1918 10.8087C16.2251 10.542 16.2501 10.2753 16.2501 10.0003C16.2501 9.72533 16.2251 9.45033 16.1918 9.16699L17.9501 7.80866C18.1084 7.68366 18.1501 7.45866 18.0501 7.27532L16.3834 4.39199C16.2834 4.20866 16.0584 4.13366 15.8751 4.20866L13.8001 5.04199C13.3668 4.71699 12.9168 4.43366 12.3918 4.22533L12.0834 2.01699C12.0501 1.81699 11.8751 1.66699 11.6668 1.66699H8.33344C8.12511 1.66699 7.95011 1.81699 7.91678 2.01699L7.60844 4.22533C7.08344 4.43366 6.63344 4.71699 6.20011 5.04199L4.12511 4.20866C3.94178 4.13366 3.71678 4.20866 3.61678 4.39199L1.95011 7.27532C1.84178 7.45866 1.89178 7.68366 2.05011 7.80866L3.80844 9.16699C3.77511 9.45033 3.75011 9.72533 3.75011 10.0003C3.75011 10.2753 3.77511 10.542 3.80844 10.8087L2.05011 12.192C1.89178 12.317 1.84178 12.542 1.95011 12.7253L3.61678 15.6087C3.71678 15.792 3.94178 15.8587 4.12511 15.792L6.20011 14.9503C6.63344 15.2837 7.08344 15.567 7.60844 15.7753L7.91678 17.9837C7.95011 18.1837 8.12511 18.3337 8.33344 18.3337H11.6668C11.8751 18.3337 12.0501 18.1837 12.0834 17.9837L12.3918 15.7753C12.9168 15.5587 13.3668 15.2837 13.8001 14.9503L15.8751 15.792C16.0584 15.8587 16.2834 15.792 16.3834 15.6087L18.0501 12.7253C18.1501 12.542 18.1084 12.317 17.9501 12.192L16.1918 10.8087Z" fill="#A0A0A6"/>
</svg>
